<?xml version="1.0" encoding="utf-8"?>
<!-- Generator: Adobe Illustrator 18.1.1, SVG Export Plug-In . SVG Version: 6.00 Build 0)  -->
<svg version="1.1" id="Layer_1" xmlns="http://www.w3.org/2000/svg" xmlns:xlink="http://www.w3.org/1999/xlink" x="0px" y="0px"
   viewBox="0 0 272.4 59.7" enable-background="new 0 0 272.4 59.7" xml:space="preserve">
  <g>
    <g>
      <path fill="#FFFFFF" d="M6,25.8c-0.9,0-1.8-0.3-2.5-1c-1.4-1.4-1.4-3.6,0-5L22.3,1c1.4-1.4,3.6-1.4,5,0c1.4,1.4,1.4,3.6,0,5
        L8.5,24.8C7.8,25.5,6.9,25.8,6,25.8z"/>
    </g>
    <g>
      <path fill="#FFFFFF" d="M3.5,43.4c-0.9,0-1.8-0.3-2.5-1c-1.4-1.4-1.4-3.6,0-5L27,11.4c1.4-1.4,3.6-1.4,5,0c1.4,1.4,1.4,3.6,0,5
        L6,42.3C5.3,43,4.4,43.4,3.5,43.4z"/>
    </g>
    <g>
      <path fill="#FFFFFF" d="M34.2,26.8c-0.9,0-1.8-0.3-2.5-1c-1.4-1.4-1.4-3.6,0-5L50.4,2c1.4-1.4,3.6-1.4,5,0c1.4,1.4,1.4,3.6,0,5
        L36.6,25.8C36,26.5,35.1,26.8,34.2,26.8z"/>
    </g>
    <g>
      <path fill="#FFFFFF" d="M19.2,41.7c-0.9,0-1.8-0.3-2.5-1c-1.4-1.4-1.4-3.6,0-5l7.9-7.9c1.4-1.4,3.6-1.4,5,0c1.4,1.4,1.4,3.6,0,5
        l-7.9,7.9C21,41.4,20.1,41.7,19.2,41.7z"/>
    </g>
    <g>
      <path fill="#FFFFFF" d="M35.9,39.1c-0.9,0-1.8-0.3-2.5-1c-1.4-1.4-1.4-3.6,0-5l16-16c1.4-1.4,3.6-1.4,5,0c1.4,1.4,1.4,3.6,0,5
        l-16,16C37.7,38.8,36.8,39.1,35.9,39.1z"/>
    </g>
    <g>
      <path fill="#FFFFFF" d="M29.8,59.7c-0.9,0-1.8-0.3-2.5-1c-1.4-1.4-1.4-3.6,0-5l20.2-20.2c1.4-1.4,3.6-1.4,5,0
        c1.4,1.4,1.4,3.6,0,5L32.3,58.7C31.6,59.3,30.7,59.7,29.8,59.7z"/>
    </g>
    <g>
      <path fill="#FFFFFF" d="M29.3,45.8c-0.9,0-1.8-0.4-2.5-1c-0.7-0.7-1-1.6-1-2.5c0-0.9,0.4-1.8,1-2.5c1.3-1.3,3.7-1.3,5,0
        c0.7,0.7,1,1.6,1,2.5c0,0.9-0.4,1.8-1,2.5C31.1,45.4,30.2,45.8,29.3,45.8z"/>
    </g>
  </g>
</svg>
