<?xml version="1.0" encoding="utf-8"?>
<!-- Generator: Adobe Illustrator 18.1.1, SVG Export Plug-In . SVG Version: 6.00 Build 0)  -->
<svg version="1.1" id="Layer_1" xmlns="http://www.w3.org/2000/svg" xmlns:xlink="http://www.w3.org/1999/xlink" x="0px" y="0px"
	 viewBox="0 0 272.4 59.7" enable-background="new 0 0 272.4 59.7" xml:space="preserve">
<g>
	<g>
		<path fill="#0490AA" d="M83.9,48.4c-7.5,0-12.2-3-14.1-8.5c-0.2-0.6-0.2-0.9,0.2-1.1l6.8-2.8c0.5-0.2,0.5-0.2,0.6,0.3
			c0.7,2,3.2,4.5,6.7,4.5c3.8,0,5.6-1.2,5.6-3.7c0-2.3-1.6-3.7-6.7-4.3c-0.4-0.1-0.9-0.1-1.3-0.2C75,32,70.3,28.3,70.3,21.4
			c0-7.2,4.9-12.2,14.7-12.2c7.4,0,11.9,3.5,13.3,8.1c0.2,0.6-0.1,0.8-0.4,0.9l-6.5,2.6c-0.4,0.2-0.6,0.1-0.7-0.2
			c-0.8-2.2-3.3-4.4-6.2-4.4c-3.9,0-5.1,1.4-5.1,3.5c0,2.5,2,3.6,7,4.4c0.5,0.1,1.1,0.2,1.8,0.3c7.1,1,11.2,4.8,11.2,11.7
			C99.6,44.6,92.5,48.4,83.9,48.4z"/>
		<path fill="#0490AA" d="M134.4,43.2c0,0.8,0,6.3,0,8.1c0,0.3-0.1,0.6-0.2,0.7c-0.2,0.1-0.4,0.1-0.7-0.1c-3.4-1.3-6.1-2.5-9-3.9
			c-1.1,0.2-2.2,0.3-3.4,0.3c-10.8,0-19.6-8.7-19.6-19.6c0-10.8,8.8-19.6,19.6-19.6s19.6,8.8,19.6,19.6
			C140.7,34.5,138.3,39.6,134.4,43.2z M121.1,18.7c-6,0-9.3,4.5-9.3,10.2s3.3,10.1,9.3,10.1c5.9,0,9.3-4.4,9.3-10.1
			S126.9,18.7,121.1,18.7z"/>
		<path fill="#0490AA" d="M159.9,48.4c-10.6,0-15.6-6-15.6-15.1v-23c0-0.3,0-0.3,0.3-0.3c3,0,6.6,0,9.3,0c0.4,0,0.4,0,0.4,0.4V35
			c0,3.7,3.1,5.3,5.8,5.3c2.7,0,5.8-1.5,5.8-5.3V10.4c0-0.3,0-0.4,0.3-0.4c2.7,0,6.1,0,9.1,0c0.3,0,0.3,0,0.3,0.4v23.5
			C175.5,42.8,170.9,48.4,159.9,48.4z"/>
		<path fill="#0490AA" d="M215.9,47.5c-2.7,0-6.1,0-10.3,0c-0.3,0-0.5-0.1-0.7-0.4c-0.7-1.5-1.5-3.5-2-4.9h-13.4
			c-0.7,1.5-1.4,3.4-1.9,4.8c-0.2,0.4-0.3,0.6-1,0.6c-3.6,0-5.5,0-9.2,0c-0.4,0-0.5-0.2-0.3-0.8c5.7-12.2,14.5-29.9,18.8-37.9
			c0.1-0.1,0.3-0.1,0.7-0.1c0.3,0,0.6-0.1,0.7,0.1c5,9.8,12.8,25.7,18.9,37.9C216.5,47.4,216.4,47.5,215.9,47.5z M196,26.5l-3.8,8.4
			h7.7L196,26.5z"/>
		<path fill="#0490AA" d="M243.1,47.5c-3.5,0-20.1,0-23.4,0c-0.5,0-0.5,0.1-0.5-0.5c0-14.3,0-23.3,0-36.5c0-0.6,0-0.5,0.5-0.5
			c3.3,0,5.5,0,9,0c0.4,0,0.5,0.1,0.5,0.5c0,5.8,0,28.2,0,28.2l13.9-0.3c0.4,0,0.5,0.1,0.5,0.6c0,2.2,0,3.7,0,8
			C243.5,47.4,243.5,47.5,243.1,47.5z"/>
		<path fill="#0490AA" d="M272,47.5c-3.5,0-20.1,0-23.4,0c-0.5,0-0.5,0.1-0.5-0.5c0-14.3,0-23.3,0-36.5c0-0.6,0-0.5,0.5-0.5
			c3.3,0,5.5,0,9,0c0.4,0,0.5,0.1,0.5,0.5c0,5.8,0,28.2,0,28.2l13.9-0.3c0.4,0,0.5,0.1,0.5,0.6c0,2.2,0,3.7,0,8
			C272.4,47.4,272.4,47.5,272,47.5z"/>
	</g>
	<g>
		<g>
			<path fill="#0490AA" d="M6,25.8c-0.9,0-1.8-0.3-2.5-1c-1.4-1.4-1.4-3.6,0-5L22.3,1c1.4-1.4,3.6-1.4,5,0c1.4,1.4,1.4,3.6,0,5
				L8.5,24.8C7.8,25.5,6.9,25.8,6,25.8z"/>
		</g>
		<g>
			<path fill="#0490AA" d="M3.5,43.4c-0.9,0-1.8-0.3-2.5-1c-1.4-1.4-1.4-3.6,0-5L27,11.4c1.4-1.4,3.6-1.4,5,0c1.4,1.4,1.4,3.6,0,5
				L6,42.3C5.3,43,4.4,43.4,3.5,43.4z"/>
		</g>
		<g>
			<path fill="#0490AA" d="M34.2,26.8c-0.9,0-1.8-0.3-2.5-1c-1.4-1.4-1.4-3.6,0-5L50.4,2c1.4-1.4,3.6-1.4,5,0c1.4,1.4,1.4,3.6,0,5
				L36.6,25.8C36,26.5,35.1,26.8,34.2,26.8z"/>
		</g>
		<g>
			<path fill="#0490AA" d="M19.2,41.7c-0.9,0-1.8-0.3-2.5-1c-1.4-1.4-1.4-3.6,0-5l7.9-7.9c1.4-1.4,3.6-1.4,5,0c1.4,1.4,1.4,3.6,0,5
				l-7.9,7.9C21,41.4,20.1,41.7,19.2,41.7z"/>
		</g>
		<g>
			<path fill="#0490AA" d="M35.9,39.1c-0.9,0-1.8-0.3-2.5-1c-1.4-1.4-1.4-3.6,0-5l16-16c1.4-1.4,3.6-1.4,5,0c1.4,1.4,1.4,3.6,0,5
				l-16,16C37.7,38.8,36.8,39.1,35.9,39.1z"/>
		</g>
		<g>
			<path fill="#0490AA" d="M29.8,59.7c-0.9,0-1.8-0.3-2.5-1c-1.4-1.4-1.4-3.6,0-5l20.2-20.2c1.4-1.4,3.6-1.4,5,0
				c1.4,1.4,1.4,3.6,0,5L32.3,58.7C31.6,59.3,30.7,59.7,29.8,59.7z"/>
		</g>
		<g>
			<path fill="#0490AA" d="M29.3,45.8c-0.9,0-1.8-0.4-2.5-1c-0.7-0.7-1-1.6-1-2.5c0-0.9,0.4-1.8,1-2.5c1.3-1.3,3.7-1.3,5,0
				c0.7,0.7,1,1.6,1,2.5c0,0.9-0.4,1.8-1,2.5C31.1,45.4,30.2,45.8,29.3,45.8z"/>
		</g>
	</g>
</g>
</svg>
